<?xml version="1.0" encoding="utf-8"?>
<!-- Generator: Adobe Illustrator 27.9.0, SVG Export Plug-In . SVG Version: 6.00 Build 0)  -->
<svg version="1.1" id="Layer_1" xmlns="http://www.w3.org/2000/svg" xmlns:xlink="http://www.w3.org/1999/xlink" x="0px" y="0px"
	 viewBox="0 0 24 24" style="enable-background:new 0 0 24 24;" xml:space="preserve">
<g>
	<path d="M8.3,13H6v2h2.2C10.3,15,10.1,13,8.3,13z M15,12.3h3C17.9,10.6,15.3,10.4,15,12.3z M8.2,9H6v2h2.4C10.1,11,10.3,9,8.2,9z
		 M8.3,13H6v2h2.2C10.3,15,10.1,13,8.3,13z M8.2,9H6v2h2.4C10.1,11,10.3,9,8.2,9z M15,12.3h3C17.9,10.6,15.3,10.4,15,12.3z M15,12.3
		h3C17.9,10.6,15.3,10.4,15,12.3z M8.2,9H6v2h2.4C10.1,11,10.3,9,8.2,9z M8.3,13H6v2h2.2C10.3,15,10.1,13,8.3,13z M8.3,13H6v2h2.2
		C10.3,15,10.1,13,8.3,13z M8.2,9H6v2h2.4C10.1,11,10.3,9,8.2,9z M15,12.3h3C17.9,10.6,15.3,10.4,15,12.3z M15,12.3h3
		C17.9,10.6,15.3,10.4,15,12.3z M8.2,9H6v2h2.4C10.1,11,10.3,9,8.2,9z M8.3,13H6v2h2.2C10.3,15,10.1,13,8.3,13z M15,12.3h3
		C17.9,10.6,15.3,10.4,15,12.3z M8.2,9H6v2h2.4C10.1,11,10.3,9,8.2,9z M8.3,13H6v2h2.2C10.3,15,10.1,13,8.3,13z M8.3,13H6v2h2.2
		C10.3,15,10.1,13,8.3,13z M8.2,9H6v2h2.4C10.1,11,10.3,9,8.2,9z M15,12.3h3C17.9,10.6,15.3,10.4,15,12.3z M15,12.3h3
		C17.9,10.6,15.3,10.4,15,12.3z M8.2,9H6v2h2.4C10.1,11,10.3,9,8.2,9z M8.3,13H6v2h2.2C10.3,15,10.1,13,8.3,13z M8.3,13H6v2h2.2
		C10.3,15,10.1,13,8.3,13z M8.2,9H6v2h2.4C10.1,11,10.3,9,8.2,9z M15,12.3h3C17.9,10.6,15.3,10.4,15,12.3z"/>
	<path d="M15,12.3h3C17.9,10.6,15.3,10.4,15,12.3z M15,12.3h3C17.9,10.6,15.3,10.4,15,12.3z M8.3,13H6v2h2.2C10.3,15,10.1,13,8.3,13
		z M8.2,9H6v2h2.4C10.1,11,10.3,9,8.2,9z M15,12.3h3C17.9,10.6,15.3,10.4,15,12.3z M8.3,13H6v2h2.2C10.3,15,10.1,13,8.3,13z M8.2,9
		H6v2h2.4C10.1,11,10.3,9,8.2,9z M15,12.3h3C17.9,10.6,15.3,10.4,15,12.3z M15,12.3h3C17.9,10.6,15.3,10.4,15,12.3z M8.2,9H6v2h2.4
		C10.1,11,10.3,9,8.2,9z M8.3,13H6v2h2.2C10.3,15,10.1,13,8.3,13z"/>
	<path d="M0,0v24h24V0H0z M14,7h5v1h-5V7z M8.3,17H4V7h4.6c3.6,0.1,3.7,3.6,1.8,4.6C12.8,12.5,12.8,17,8.3,17z M20,13.7h-5.1
		c-0.1,1.9,2,2.2,2.8,1.3h2.1c-0.3,0.9-1.4,2-3.4,2S13,15.8,13,13.2c0-2.6,1.3-3.9,3.3-3.9c2.1,0,3.3,1.2,3.6,2.9
		C20,12.6,20,13,20,13.7z"/>
</g>
</svg>
