<?xml version="1.0" encoding="UTF-8"?>
<svg xmlns="http://www.w3.org/2000/svg" viewBox="0 0 140 100">
  <defs>
    <style>
      .cls-1, .cls-2 {
        stroke-width: 0px;
      }

      .cls-2 {
        fill: #fff;
      }
    </style>
  </defs>
  <g id="background">
    <rect class="cls-1" width="140" height="100" rx="9.47" ry="9.47"/>
  </g>
  <g id="Layer_2" data-name="Layer 2">
    <g>
      <path class="cls-2" d="m115.61,39.2v-4.32c0-.49-.4-.89-.89-.89h-6.97c-.49,0-.89-.4-.89-.89v-8.95c0-.49-.4-.89-.89-.89h-4.32c-.49,0-.89.4-.89.89v21.63c0,.49-.4.89-.89.89h-9.33c-.49,0-.89-.4-.89-.89v-3.11c0-.24-.09-.46-.26-.63l-2.53-2.53c-.17-.17-.39-.26-.63-.26h-6.24c-.49,0-.89-.4-.89-.89v-2.77c0-.49.4-.89.89-.89h9.94c.49,0,.89.4.89.89v3.61c0,.49.4.89.89.89h4.32c.49,0,.89-.4.89-.89v-9.68c0-.49-.4-.89-.89-.89h-1.14v-.03h-18.48c-.24,0-.46.09-.63.26l-2.53,2.53c-.17.17-.26.39-.26.63v38.53c0,.24.09.46.26.63l2.53,2.53c.17.17.39.26.63.26h9.81c.24,0,.46-.09.63-.26l2.53-2.53c.17-.17.26-.39.26-.63v-17.77h25.08c.49,0,.89-.4.89-.89v-4.32c0-.49-.4-.89-.89-.89h-6.97c-.49,0-.89-.4-.89-.89v-4.79c0-.49.4-.89.89-.89h6.97c.49,0,.89-.4.89-.89Zm-32.96,28.66h-2.66c-.49,0-.89-.4-.89-.89v-5.93c0-.49.4-.89.89-.89h2.66c.49,0,.89.4.89.89v5.93c0,.49-.4.89-.89.89Zm-3.56-14.7v-6.91c0-.49.4-.89.89-.89h2.66c.49,0,.89.4.89.89v6.91c0,.49-.4.89-.89.89h-2.66c-.49,0-.89-.4-.89-.89Z"/>
      <path class="cls-2" d="m96.1,56.44l-2.53,2.53c-.17.17-.26.39-.26.63v10.94c0,.24.09.46.26.63l2.53,2.53c.17.17.39.26.63.26h15.45c.24,0,.46-.09.63-.26l2.53-2.53c.17-.17.26-.39.26-.63v-10.94c0-.24-.09-.46-.26-.63l-2.53-2.53c-.17-.17-.39-.26-.63-.26h-15.45c-.24,0-.46.09-.63.26Zm12.51,11.42h-8.31c-.49,0-.89-.4-.89-.89v-3.79c0-.49.4-.89.89-.89h8.31c.49,0,.89.4.89.89v3.79c0,.49-.4.89-.89.89Z"/>
    </g>
    <path class="cls-2" d="m55.14,34.69h11.86c.49,0,.89-.4.89-.89v-4.32c0-.49-.4-.89-.89-.89h-17.44c-.49,0-.89-.4-.89-.89v-3.55c0-.49-.4-.89-.89-.89h-4.32c-.49,0-.89.4-.89.89v3.55c0,.49-.4.89-.89.89h-15.51c-.49,0-.89.4-.89.89v4.32c0,.49.4.89.89.89h15.51c.49,0,.89.4.89.89v10.19c0,.49-.4.89-.89.89h-4.61c-.79,0-1.19-.96-.63-1.52l3.8-3.8c.35-.35.35-.91,0-1.26l-3.05-3.05c-.35-.35-.91-.35-1.26,0l-9.38,9.38c-.17.17-.39.26-.63.26h-.62c-.49,0-.89.4-.89.89v4.32c0,.49.4.89.89.89h2.08c.12,0,.23-.02.34-.07l1.83-.76c.11-.04.21-.11.29-.19l3.44-3.44c.56-.56,1.52-.16,1.52.63v2.93c0,.49.4.89.89.89h13.08l-3.52,4.18c-.17.2-.42.32-.68.32h-18.4c-.49,0-.89.4-.89.89v4.32c0,.49.4.89.89.89h21.31l.19.16.02-.02v3.46c0,.49-.4.89-.89.89h-11.12c-.49,0-.89.4-.89.89v4.32c0,.49.4.89.89.89h14.69c.24,0,.46-.09.63-.26l2.53-2.53c.17-.17.26-.39.26-.63v-6.28c0-.49.4-.89.89-.89h12.32c.49,0,.89-.4.89-.89v-4.32c0-.49-.4-.89-.89-.89h-12.13c-.76,0-1.17-.89-.68-1.47l3.1-3.67c.22-.27.27-.64.13-.95l-1.85-3.99c-.15-.31-.46-.52-.81-.52h-5.19c-.49,0-.89-.4-.89-.89v-4.61c0-.79.96-1.19,1.52-.63l11.22,11.22c.08.08.18.15.29.19l1.83.76c.11.04.22.07.34.07h3.94c.49,0,.89-.4.89-.89v-4.32c0-.49-.4-.89-.89-.89h-2.49c-.24,0-.46-.09-.63-.26l-10.19-10.19c-.56-.56-.16-1.52.63-1.52Z"/>
  </g>
</svg>