<?xml version="1.0" encoding="utf-8"?>
<!-- Generator: Adobe Illustrator 27.9.0, SVG Export Plug-In . SVG Version: 6.00 Build 0)  -->
<svg version="1.1" id="Layer_1" xmlns="http://www.w3.org/2000/svg" xmlns:xlink="http://www.w3.org/1999/xlink" x="0px" y="0px"
	 viewBox="0 0 24 24" style="enable-background:new 0 0 24 24;" xml:space="preserve">
<path d="M24,0v5.9l-10.6,6.2c-0.9,0.5-2,0.5-2.9,0L0,5.9V0H24z"/>
<path d="M6.4,12C5.2,13.9,2.2,18.7,0,22.1V8.2L6.4,12z"/>
<path d="M22.8,24H1.2c1.3-2.1,5.5-8.7,7-11l1.4,0.8c0.8,0.4,1.6,0.7,2.5,0.7s1.7-0.2,2.5-0.7l1.4-0.8C17.3,15.3,21.5,21.9,22.8,24z"
	/>
<path d="M24,8.2v13.9c-2.2-3.4-5.2-8.2-6.4-10.1L24,8.2z"/>
</svg>
