<?xml version="1.0" encoding="utf-8"?>
<!-- Generator: Adobe Illustrator 27.9.0, SVG Export Plug-In . SVG Version: 6.00 Build 0)  -->
<svg version="1.1" id="Layer_1" xmlns="http://www.w3.org/2000/svg" xmlns:xlink="http://www.w3.org/1999/xlink" x="0px" y="0px"
	 viewBox="0 0 72 72" style="enable-background:new 0 0 72 72;" xml:space="preserve">
<style type="text/css">
	.st0{fill-rule:evenodd;clip-rule:evenodd;}
</style>
<g>
	<path class="st0" d="M7.3,7.3v57.5h57.5V7.3H7.3z M24.6,56.8H16V29.1h8.5V56.8z M20.3,25.5c-2.8,0-5-2.3-5-5.1s2.2-5.1,5-5.1
		s5.1,2.3,5.1,5.1S23.1,25.5,20.3,25.5z M56.8,56.8h-8.5V42.2c0-4-1.5-6.2-4.7-6.2c-3.4,0-5.2,2.3-5.2,6.2v14.5h-8.2V29.1h8.2v3.8
		c0,0,2.5-4.6,8.4-4.6c5.8,0,10.1,3.6,10.1,10.9V56.8z"/>
</g>
<g>
	<path d="M63,9v54H9V9H63 M72,0H0v72h72V0L72,0z"/>
</g>
</svg>
