<?xml version="1.0" encoding="UTF-8"?>
<svg xmlns="http://www.w3.org/2000/svg" xmlns:xlink="http://www.w3.org/1999/xlink" viewBox="0 0 32 32">
  <defs>
    <style>
      .cls-1 {
        isolation: isolate;
      }

      .cls-2, .cls-3 {
        stroke-width: 0px;
      }

      .cls-3 {
        fill: none;
      }

      .cls-4 {
        clip-path: url(#clippath-1);
      }

      .cls-5 {
        clip-path: url(#clippath);
      }

      .cls-6 {
        mix-blend-mode: multiply;
      }
    </style>
    <clipPath id="clippath">
      <rect class="cls-3" x="-325.15" y="-1493.88" width="1366" height="697.6"/>
    </clipPath>
    <clipPath id="clippath-1">
      <rect class="cls-3" x="34.77" y="-776.29" width="1006.09" height="768"/>
    </clipPath>
    <image id="image" width="3507" height="4960" xlink:href="../../../CDP-GIS/Binned_20241014/20241021-all-transformed_adj4.png"/>
  </defs>
  <g class="cls-1">
    <g id="cover">
      <g class="cls-6">
        <g class="cls-5">
          <use transform="translate(-1031.73 -3083.51) scale(.81)" xlink:href="#image"/>
        </g>
      </g>
      <g class="cls-6">
        <g class="cls-4">
          <use transform="translate(-170.54 -1932.08) scale(.49)" xlink:href="#image"/>
        </g>
      </g>
    </g>
    <g id="text">
      <g>
        <path class="cls-2" d="m3.98,20.99l12.3.06c.72,0,1.29.59,1.29,1.3l-.03,6.68-10.38,2.99-3.18-11.03Z"/>
        <path class="cls-2" d="m30.92,21.12l1.08,3.75-10.64,3.06.03-5.56c0-.72.59-1.3,1.3-1.29l8.23.04Z"/>
        <path class="cls-2" d="m16.29,17.23l-13.41-.07L0,7.18,17.66,2.1l-.06,13.84c0,.72-.59,1.3-1.3,1.29Z"/>
        <path class="cls-2" d="m24.85.03l4.97,17.27-7.11-.03c-.72,0-1.3-.59-1.29-1.3l.07-14.96L24.85.03Z"/>
      </g>
      <g>
        <path class="cls-2" d="m0,7.15L18.54,1.82v12.44c0,2.15-1.74,3.89-3.89,3.89H3.17L0,7.15Z"/>
        <path class="cls-2" d="m30.07,18.15h-5.69c-2.15,0-3.89-1.74-3.89-3.89V1.26l4.36-1.26,5.22,18.15Z"/>
        <path class="cls-2" d="m3.73,20.09h10.92c2.15,0,3.89,1.74,3.89,3.89v4.74l-11.38,3.27-3.43-11.9Z"/>
        <path class="cls-2" d="m32,24.86l-11.51,3.31v-4.18c0-2.15,1.74-3.89,3.89-3.89h6.24l1.38,4.76Z"/>
      </g>
    </g>
  </g>
</svg>