<?xml version="1.0" encoding="UTF-8"?>
<svg id="Layer_1" data-name="Layer 1" xmlns="http://www.w3.org/2000/svg" viewBox="0 0 250 250">
  <defs>
    <style>
      .cls-1 {
        stroke-width: 0px;
      }
    </style>
  </defs>
  <circle class="cls-1" cx="125" cy="28.86" r="21.36"/>
  <circle class="cls-1" cx="28.86" cy="125" r="21.36"/>
  <circle class="cls-1" cx="221.14" cy="125" r="21.36"/>
  <circle class="cls-1" cx="125" cy="221.14" r="21.36"/>
  <path class="cls-1" d="m159.88,144.7c6.89-12.19,6.89-27.22,0-39.41-.5-.89.43-1.89,1.37-1.47,11.48,5.05,25.54,2.39,34.32-7.99,9.29-10.99,9.12-27.41-.36-38.23-11.31-12.9-30.97-13.38-42.9-1.44-8.81,8.81-10.85,21.83-6.12,32.59.42.94-.59,1.87-1.48,1.37-12.38-7-27.7-6.89-39.98.34-.92.53-2-.42-1.52-1.37,5.79-11.51,3.53-26.04-6.79-35.2-10.97-9.74-27.82-9.77-38.83-.09-12.86,11.31-13.33,30.93-1.4,42.86,9.04,9.04,22.5,10.95,33.4,5.75.96-.46,1.9.63,1.34,1.54-7.67,12.41-7.93,28.09-.78,40.73.5.9-.42,1.9-1.36,1.48-11.48-5.05-25.55-2.39-34.32,7.98-9.29,10.99-9.12,27.41.36,38.23,11.31,12.9,30.97,13.38,42.9,1.44,8.81-8.81,10.85-21.83,6.12-32.59-.42-.94.59-1.88,1.47-1.37,12.19,6.89,27.22,6.89,39.41,0,.89-.5,1.89.43,1.47,1.37-5.05,11.48-2.39,25.54,7.98,34.32,10.99,9.29,27.41,9.12,38.23-.36,12.9-11.31,13.38-30.97,1.45-42.9-8.81-8.81-21.83-10.85-32.59-6.12-.94.42-1.88-.59-1.37-1.47h-.02Z"/>
</svg>